<mxfile host="app.diagrams.net" modified="2023-05-09T03:07:45.068Z" agent="Mozilla/5.0 (Macintosh; Intel Mac OS X 10_15_7) AppleWebKit/537.36 (KHTML, like Gecko) Chrome/112.0.0.0 Safari/537.36" etag="wkvFTEoUpOIFROubPoQN" version="21.2.1" type="github" pages="3">
  <diagram id="aAYIiFsEhq0NpADb2_yu" name="tenantManger">
    <mxGraphModel dx="1434" dy="796" grid="1" gridSize="10" guides="1" tooltips="1" connect="1" arrows="1" fold="1" page="1" pageScale="1" pageWidth="2339" pageHeight="3300" math="0" shadow="0">
      <root>
        <mxCell id="0" />
        <mxCell id="1" parent="0" />
        <mxCell id="YFYhwFDiMB3ObzHcM0z0-7" value="" style="rounded=0;whiteSpace=wrap;html=1;fillColor=#f5f5f5;fontColor=#333333;strokeColor=#666666;" vertex="1" parent="1">
          <mxGeometry x="35" y="1020" width="1165" height="370" as="geometry" />
        </mxCell>
        <mxCell id="GXgyCc8vOvcXfKr6zjCS-19" value="" style="rounded=0;whiteSpace=wrap;html=1;fillColor=#f9f7ed;strokeColor=#36393d;" parent="1" vertex="1">
          <mxGeometry x="80" y="180" width="1090" height="610" as="geometry" />
        </mxCell>
        <mxCell id="GXgyCc8vOvcXfKr6zjCS-30" value="" style="rounded=0;whiteSpace=wrap;html=1;fillColor=#f5f5f5;fontColor=#333333;strokeColor=#666666;" parent="1" vertex="1">
          <mxGeometry x="155" y="200" width="620" height="120" as="geometry" />
        </mxCell>
        <mxCell id="GXgyCc8vOvcXfKr6zjCS-22" value="租户基本属性配置" style="rounded=0;whiteSpace=wrap;html=1;fillColor=#dae8fc;strokeColor=#6c8ebf;" parent="1" vertex="1">
          <mxGeometry x="185" y="213.75" width="160" height="76.25" as="geometry" />
        </mxCell>
        <mxCell id="GXgyCc8vOvcXfKr6zjCS-23" value="configs" style="text;html=1;align=center;verticalAlign=middle;resizable=0;points=[];autosize=1;strokeColor=none;fillColor=none;fontStyle=1;fontSize=13;" parent="1" vertex="1">
          <mxGeometry x="155" y="290" width="70" height="30" as="geometry" />
        </mxCell>
        <mxCell id="GXgyCc8vOvcXfKr6zjCS-24" value="租户业务配置" style="rounded=0;whiteSpace=wrap;html=1;fillColor=#dae8fc;strokeColor=#6c8ebf;" parent="1" vertex="1">
          <mxGeometry x="385" y="215.63" width="160" height="72.5" as="geometry" />
        </mxCell>
        <mxCell id="GXgyCc8vOvcXfKr6zjCS-26" value="" style="rounded=0;whiteSpace=wrap;html=1;fillColor=#f5f5f5;fontColor=#333333;strokeColor=#666666;opacity=70;" parent="1" vertex="1">
          <mxGeometry x="140" y="370" width="650" height="320" as="geometry" />
        </mxCell>
        <mxCell id="GXgyCc8vOvcXfKr6zjCS-31" style="edgeStyle=orthogonalEdgeStyle;rounded=0;orthogonalLoop=1;jettySize=auto;html=1;entryX=0;entryY=0.5;entryDx=0;entryDy=0;" parent="1" source="GXgyCc8vOvcXfKr6zjCS-27" target="GXgyCc8vOvcXfKr6zjCS-28" edge="1">
          <mxGeometry relative="1" as="geometry" />
        </mxCell>
        <mxCell id="GXgyCc8vOvcXfKr6zjCS-27" value="BaseTenantManager" style="rounded=0;whiteSpace=wrap;html=1;fillColor=#e1d5e7;strokeColor=#9673a6;" parent="1" vertex="1">
          <mxGeometry x="170" y="430" width="125" height="75" as="geometry" />
        </mxCell>
        <mxCell id="GXgyCc8vOvcXfKr6zjCS-32" style="edgeStyle=orthogonalEdgeStyle;rounded=0;orthogonalLoop=1;jettySize=auto;html=1;entryX=0;entryY=0.5;entryDx=0;entryDy=0;" parent="1" source="GXgyCc8vOvcXfKr6zjCS-28" target="GXgyCc8vOvcXfKr6zjCS-29" edge="1">
          <mxGeometry relative="1" as="geometry" />
        </mxCell>
        <mxCell id="GXgyCc8vOvcXfKr6zjCS-28" value="MallTenantManager&lt;br&gt;AdminTenantManager" style="rounded=0;whiteSpace=wrap;html=1;fillColor=#e1d5e7;strokeColor=#9673a6;" parent="1" vertex="1">
          <mxGeometry x="390" y="430" width="150" height="75" as="geometry" />
        </mxCell>
        <mxCell id="GXgyCc8vOvcXfKr6zjCS-25" value="租户业务权限配置" style="rounded=0;whiteSpace=wrap;html=1;fillColor=#dae8fc;strokeColor=#6c8ebf;" parent="1" vertex="1">
          <mxGeometry x="585" y="215.63" width="160" height="70" as="geometry" />
        </mxCell>
        <mxCell id="GXgyCc8vOvcXfKr6zjCS-33" value="core" style="text;html=1;align=center;verticalAlign=middle;resizable=0;points=[];autosize=1;strokeColor=none;fillColor=none;fontStyle=1;fontSize=13;" parent="1" vertex="1">
          <mxGeometry x="140" y="660" width="50" height="30" as="geometry" />
        </mxCell>
        <mxCell id="GXgyCc8vOvcXfKr6zjCS-35" value="tenantManager" style="text;html=1;align=center;verticalAlign=middle;resizable=0;points=[];autosize=1;strokeColor=none;fillColor=none;fontSize=17;fontStyle=1" parent="1" vertex="1">
          <mxGeometry x="80" y="760" width="140" height="30" as="geometry" />
        </mxCell>
        <mxCell id="GXgyCc8vOvcXfKr6zjCS-41" value="" style="shape=flexArrow;endArrow=classic;html=1;rounded=0;width=11;endSize=5.05;entryX=0.5;entryY=0;entryDx=0;entryDy=0;" parent="1" source="GXgyCc8vOvcXfKr6zjCS-30" target="GXgyCc8vOvcXfKr6zjCS-26" edge="1">
          <mxGeometry width="50" height="50" relative="1" as="geometry">
            <mxPoint x="450" y="360" as="sourcePoint" />
            <mxPoint x="440" y="390" as="targetPoint" />
          </mxGeometry>
        </mxCell>
        <mxCell id="GXgyCc8vOvcXfKr6zjCS-46" value="" style="rounded=0;whiteSpace=wrap;html=1;fontSize=12;fillColor=#eeeeee;strokeColor=#36393d;opacity=50;" parent="1" vertex="1">
          <mxGeometry x="610" y="350" width="500.86" height="410" as="geometry" />
        </mxCell>
        <mxCell id="GXgyCc8vOvcXfKr6zjCS-62" style="edgeStyle=orthogonalEdgeStyle;rounded=0;orthogonalLoop=1;jettySize=auto;html=1;exitX=0.5;exitY=1;exitDx=0;exitDy=0;fontSize=12;" parent="1" source="GXgyCc8vOvcXfKr6zjCS-52" target="GXgyCc8vOvcXfKr6zjCS-54" edge="1">
          <mxGeometry relative="1" as="geometry" />
        </mxCell>
        <mxCell id="GXgyCc8vOvcXfKr6zjCS-52" value="router + router permission" style="rounded=0;whiteSpace=wrap;html=1;fontSize=12;fillColor=#d5e8d4;strokeColor=#82b366;" parent="1" vertex="1">
          <mxGeometry x="859.14" y="370" width="195" height="76.25" as="geometry" />
        </mxCell>
        <mxCell id="GXgyCc8vOvcXfKr6zjCS-55" value="" style="rounded=0;whiteSpace=wrap;html=1;fontSize=12;fillColor=#d5e8d4;strokeColor=#82b366;" parent="1" vertex="1">
          <mxGeometry x="850.86" y="600" width="211.56" height="134.04" as="geometry" />
        </mxCell>
        <mxCell id="GXgyCc8vOvcXfKr6zjCS-56" value="云筑优选" style="rounded=0;whiteSpace=wrap;html=1;fontSize=12;fillColor=#fff2cc;strokeColor=#d6b656;" parent="1" vertex="1">
          <mxGeometry x="864.14" y="620" width="90" height="35.32" as="geometry" />
        </mxCell>
        <mxCell id="GXgyCc8vOvcXfKr6zjCS-57" value="八局专区" style="rounded=0;whiteSpace=wrap;html=1;fontSize=12;fillColor=#fff2cc;strokeColor=#d6b656;" parent="1" vertex="1">
          <mxGeometry x="864.14" y="681.88" width="90" height="31.88" as="geometry" />
        </mxCell>
        <mxCell id="GXgyCc8vOvcXfKr6zjCS-58" value="办公专区" style="rounded=0;whiteSpace=wrap;html=1;fontSize=12;fillColor=#fff2cc;strokeColor=#d6b656;" parent="1" vertex="1">
          <mxGeometry x="966.64" y="620" width="87.5" height="35.32" as="geometry" />
        </mxCell>
        <mxCell id="GXgyCc8vOvcXfKr6zjCS-63" style="edgeStyle=orthogonalEdgeStyle;rounded=0;orthogonalLoop=1;jettySize=auto;html=1;fontSize=12;" parent="1" source="GXgyCc8vOvcXfKr6zjCS-54" target="GXgyCc8vOvcXfKr6zjCS-55" edge="1">
          <mxGeometry relative="1" as="geometry" />
        </mxCell>
        <mxCell id="GXgyCc8vOvcXfKr6zjCS-54" value="MROGlobalStore&lt;br&gt;useTenantManager" style="rounded=0;whiteSpace=wrap;html=1;fontSize=12;fillColor=#d5e8d4;strokeColor=#82b366;" parent="1" vertex="1">
          <mxGeometry x="861.64" y="485.97999999999996" width="190" height="73.41" as="geometry" />
        </mxCell>
        <mxCell id="GXgyCc8vOvcXfKr6zjCS-64" value="中建国际" style="rounded=0;whiteSpace=wrap;html=1;fontSize=12;fillColor=#fff2cc;strokeColor=#d6b656;" parent="1" vertex="1">
          <mxGeometry x="966.64" y="681.88" width="87.5" height="31.88" as="geometry" />
        </mxCell>
        <mxCell id="GXgyCc8vOvcXfKr6zjCS-68" value="page render" style="text;html=1;align=center;verticalAlign=middle;resizable=0;points=[];autosize=1;strokeColor=none;fillColor=none;fontSize=13;fontStyle=1" parent="1" vertex="1">
          <mxGeometry x="610" y="730" width="100" height="30" as="geometry" />
        </mxCell>
        <mxCell id="GXgyCc8vOvcXfKr6zjCS-29" value="new TenantManager (instance)" style="rounded=0;whiteSpace=wrap;html=1;fillColor=#ffcc99;strokeColor=#36393d;" parent="1" vertex="1">
          <mxGeometry x="630.86" y="430" width="120" height="75" as="geometry" />
        </mxCell>
        <mxCell id="GXgyCc8vOvcXfKr6zjCS-72" style="edgeStyle=orthogonalEdgeStyle;rounded=0;orthogonalLoop=1;jettySize=auto;html=1;fontSize=13;" parent="1" source="GXgyCc8vOvcXfKr6zjCS-29" target="GXgyCc8vOvcXfKr6zjCS-54" edge="1">
          <mxGeometry relative="1" as="geometry" />
        </mxCell>
        <mxCell id="Wlwgpb2cPEbc9Rwz6Hug-1" style="edgeStyle=orthogonalEdgeStyle;rounded=0;orthogonalLoop=1;jettySize=auto;html=1;entryX=0.5;entryY=1;entryDx=0;entryDy=0;" parent="1" source="GXgyCc8vOvcXfKr6zjCS-76" target="GXgyCc8vOvcXfKr6zjCS-28" edge="1">
          <mxGeometry relative="1" as="geometry" />
        </mxCell>
        <mxCell id="GXgyCc8vOvcXfKr6zjCS-76" value="" style="rounded=0;whiteSpace=wrap;html=1;dashed=1;fontSize=13;opacity=50;fillColor=#eeeeee;strokeColor=#36393d;" parent="1" vertex="1">
          <mxGeometry x="345" y="550" width="240" height="105.32" as="geometry" />
        </mxCell>
        <mxCell id="GXgyCc8vOvcXfKr6zjCS-38" value="new Loader" style="rounded=0;whiteSpace=wrap;html=1;fillColor=#d5e8d4;strokeColor=#82b366;" parent="1" vertex="1">
          <mxGeometry x="360" y="577.35" width="90" height="42.65" as="geometry" />
        </mxCell>
        <mxCell id="GXgyCc8vOvcXfKr6zjCS-77" value="plugins" style="text;html=1;align=center;verticalAlign=middle;resizable=0;points=[];autosize=1;strokeColor=none;fillColor=none;fontSize=13;fontStyle=1" parent="1" vertex="1">
          <mxGeometry x="515" y="625.3199999999999" width="70" height="30" as="geometry" />
        </mxCell>
        <mxCell id="Wlwgpb2cPEbc9Rwz6Hug-2" value="..." style="rounded=0;whiteSpace=wrap;html=1;fillColor=#d5e8d4;strokeColor=#82b366;" parent="1" vertex="1">
          <mxGeometry x="470" y="577.35" width="90" height="42.65" as="geometry" />
        </mxCell>
        <mxCell id="JO-ryfBnULlByDA7Q8-5-3" style="rounded=0;orthogonalLoop=1;jettySize=auto;html=1;edgeStyle=orthogonalEdgeStyle;fontStyle=1;fontSize=13;" parent="1" source="JO-ryfBnULlByDA7Q8-5-1" target="JO-ryfBnULlByDA7Q8-5-2" edge="1">
          <mxGeometry relative="1" as="geometry" />
        </mxCell>
        <mxCell id="JO-ryfBnULlByDA7Q8-5-1" value="hammerThemeVars" style="rounded=1;whiteSpace=wrap;html=1;fillColor=#d5e8d4;strokeColor=#82b366;fontStyle=1;fontSize=13;" parent="1" vertex="1">
          <mxGeometry x="55" y="1200" width="130" height="60" as="geometry" />
        </mxCell>
        <mxCell id="JO-ryfBnULlByDA7Q8-5-5" style="rounded=0;orthogonalLoop=1;jettySize=auto;html=1;edgeStyle=orthogonalEdgeStyle;fontStyle=1;fontSize=13;" parent="1" source="JO-ryfBnULlByDA7Q8-5-2" target="JO-ryfBnULlByDA7Q8-5-4" edge="1">
          <mxGeometry relative="1" as="geometry" />
        </mxCell>
        <mxCell id="JO-ryfBnULlByDA7Q8-5-8" value="HammerThemeContext.Provider" style="edgeLabel;html=1;align=center;verticalAlign=middle;resizable=0;points=[];fontStyle=1;fontSize=13;labelBackgroundColor=none;" parent="JO-ryfBnULlByDA7Q8-5-5" vertex="1" connectable="0">
          <mxGeometry x="-0.0375" y="4" relative="1" as="geometry">
            <mxPoint x="4" y="-11" as="offset" />
          </mxGeometry>
        </mxCell>
        <mxCell id="JO-ryfBnULlByDA7Q8-5-36" style="edgeStyle=orthogonalEdgeStyle;rounded=0;orthogonalLoop=1;jettySize=auto;html=1;fontSize=13;startArrow=none;startFill=0;elbow=vertical;fontStyle=1;entryX=0.5;entryY=1;entryDx=0;entryDy=0;" parent="1" source="JO-ryfBnULlByDA7Q8-5-2" target="JO-ryfBnULlByDA7Q8-5-6" edge="1">
          <mxGeometry relative="1" as="geometry">
            <mxPoint x="1122" y="1260" as="targetPoint" />
            <Array as="points">
              <mxPoint x="430" y="1320" />
              <mxPoint x="1109" y="1320" />
            </Array>
          </mxGeometry>
        </mxCell>
        <mxCell id="JO-ryfBnULlByDA7Q8-5-37" value="消费方式二：React.useContext(ConfigProvider.HammerThemeContext)" style="edgeLabel;html=1;align=center;verticalAlign=middle;resizable=0;points=[];fontSize=13;fontStyle=1;fontColor=#FF8000;labelBackgroundColor=none;" parent="JO-ryfBnULlByDA7Q8-5-36" vertex="1" connectable="0">
          <mxGeometry x="-0.0629" y="-2" relative="1" as="geometry">
            <mxPoint x="46" y="-12" as="offset" />
          </mxGeometry>
        </mxCell>
        <mxCell id="YFYhwFDiMB3ObzHcM0z0-4" style="edgeStyle=orthogonalEdgeStyle;rounded=0;orthogonalLoop=1;jettySize=auto;html=1;entryX=0;entryY=0.5;entryDx=0;entryDy=0;fontSize=13;" edge="1" parent="1" source="JO-ryfBnULlByDA7Q8-5-2" target="JO-ryfBnULlByDA7Q8-5-32">
          <mxGeometry relative="1" as="geometry">
            <Array as="points">
              <mxPoint x="430" y="1110" />
            </Array>
          </mxGeometry>
        </mxCell>
        <mxCell id="YFYhwFDiMB3ObzHcM0z0-6" value="style register" style="edgeLabel;html=1;align=center;verticalAlign=middle;resizable=0;points=[];fontStyle=1;fontSize=13;labelBackgroundColor=none;" vertex="1" connectable="0" parent="YFYhwFDiMB3ObzHcM0z0-4">
          <mxGeometry x="-0.1549" y="-1" relative="1" as="geometry">
            <mxPoint x="55" y="-16" as="offset" />
          </mxGeometry>
        </mxCell>
        <mxCell id="JO-ryfBnULlByDA7Q8-5-2" value="HammerThemeContext" style="rounded=0;whiteSpace=wrap;html=1;fontStyle=1;fontSize=13;fillColor=#ffe6cc;strokeColor=#d79b00;" parent="1" vertex="1">
          <mxGeometry x="330" y="1200" width="200" height="60" as="geometry" />
        </mxCell>
        <mxCell id="JO-ryfBnULlByDA7Q8-5-7" style="rounded=0;orthogonalLoop=1;jettySize=auto;html=1;edgeStyle=orthogonalEdgeStyle;fontStyle=1;fontSize=13;" parent="1" source="JO-ryfBnULlByDA7Q8-5-4" target="JO-ryfBnULlByDA7Q8-5-6" edge="1">
          <mxGeometry relative="1" as="geometry" />
        </mxCell>
        <mxCell id="JO-ryfBnULlByDA7Q8-5-9" value="configProvider" style="edgeLabel;html=1;align=center;verticalAlign=middle;resizable=0;points=[];fontStyle=1;fontSize=13;labelBackgroundColor=none;" parent="JO-ryfBnULlByDA7Q8-5-7" vertex="1" connectable="0">
          <mxGeometry x="-0.3273" y="1" relative="1" as="geometry">
            <mxPoint x="12" y="-14" as="offset" />
          </mxGeometry>
        </mxCell>
        <mxCell id="JO-ryfBnULlByDA7Q8-5-4" value="AntTheme token" style="rounded=0;whiteSpace=wrap;html=1;fontStyle=1;fontSize=13;fillColor=#d5e8d4;strokeColor=#82b366;" parent="1" vertex="1">
          <mxGeometry x="750.86" y="1200" width="170" height="60" as="geometry" />
        </mxCell>
        <mxCell id="JO-ryfBnULlByDA7Q8-5-6" value="pages/components" style="rounded=0;whiteSpace=wrap;html=1;fontStyle=1;fontSize=13;fillColor=#d5e8d4;strokeColor=#82b366;" parent="1" vertex="1">
          <mxGeometry x="1030" y="1200" width="158.36" height="60" as="geometry" />
        </mxCell>
        <mxCell id="YFYhwFDiMB3ObzHcM0z0-2" style="edgeStyle=orthogonalEdgeStyle;rounded=0;orthogonalLoop=1;jettySize=auto;html=1;fontSize=13;" edge="1" parent="1" source="JO-ryfBnULlByDA7Q8-5-32" target="JO-ryfBnULlByDA7Q8-5-6">
          <mxGeometry relative="1" as="geometry" />
        </mxCell>
        <mxCell id="YFYhwFDiMB3ObzHcM0z0-3" value="消费方式一：var(--yzw-color-primary)" style="edgeLabel;html=1;align=center;verticalAlign=middle;resizable=0;points=[];fontStyle=1;fontColor=#FF8000;fontSize=13;labelBackgroundColor=none;" vertex="1" connectable="0" parent="YFYhwFDiMB3ObzHcM0z0-2">
          <mxGeometry x="-0.3493" y="-1" relative="1" as="geometry">
            <mxPoint x="25" y="-16" as="offset" />
          </mxGeometry>
        </mxCell>
        <mxCell id="JO-ryfBnULlByDA7Q8-5-32" value="global css variables" style="rounded=0;whiteSpace=wrap;html=1;fontStyle=1;fontSize=13;fillColor=#ffe6cc;strokeColor=#d79b00;" parent="1" vertex="1">
          <mxGeometry x="660" y="1080" width="140" height="60" as="geometry" />
        </mxCell>
        <mxCell id="onrq1OypU6LE9D-NkZ2a-1" value="React.createContext" style="text;html=1;align=center;verticalAlign=middle;resizable=0;points=[];autosize=1;strokeColor=none;fillColor=none;fontStyle=1;fontSize=13;" parent="1" vertex="1">
          <mxGeometry x="180" y="1200" width="150" height="30" as="geometry" />
        </mxCell>
      </root>
    </mxGraphModel>
  </diagram>
  <diagram id="SAoAoQRsERM2bf48O6ZD" name="globalstore">
    <mxGraphModel dx="1434" dy="796" grid="1" gridSize="10" guides="1" tooltips="1" connect="1" arrows="1" fold="1" page="1" pageScale="1" pageWidth="2339" pageHeight="3300" math="0" shadow="0">
      <root>
        <mxCell id="0" />
        <mxCell id="1" parent="0" />
        <mxCell id="HfodSYz1MGgp3rjWl605-46" value="" style="rounded=0;whiteSpace=wrap;html=1;fontSize=13;fontStyle=1;fillColor=#d5e8d4;strokeColor=#82b366;" parent="1" vertex="1">
          <mxGeometry x="790" y="422.5" width="240" height="515" as="geometry" />
        </mxCell>
        <mxCell id="HfodSYz1MGgp3rjWl605-51" style="edgeStyle=orthogonalEdgeStyle;rounded=0;orthogonalLoop=1;jettySize=auto;html=1;entryX=0;entryY=0.096;entryDx=0;entryDy=0;entryPerimeter=0;fontSize=13;fontColor=#006600;" parent="1" source="HfodSYz1MGgp3rjWl605-1" target="HfodSYz1MGgp3rjWl605-29" edge="1">
          <mxGeometry relative="1" as="geometry" />
        </mxCell>
        <mxCell id="HfodSYz1MGgp3rjWl605-1" value="UserContextConstructor" style="rounded=0;whiteSpace=wrap;html=1;fontSize=13;fontStyle=1;fillColor=#dae8fc;strokeColor=#6c8ebf;" parent="1" vertex="1">
          <mxGeometry x="200" y="440" width="210" height="60" as="geometry" />
        </mxCell>
        <mxCell id="HfodSYz1MGgp3rjWl605-4" value="userContext&lt;br&gt;useUserContext" style="rounded=0;whiteSpace=wrap;html=1;fontSize=13;fontStyle=1;fillColor=#fff2cc;strokeColor=#d6b656;" parent="1" vertex="1">
          <mxGeometry x="830" y="450" width="160" height="60" as="geometry" />
        </mxCell>
        <mxCell id="HfodSYz1MGgp3rjWl605-37" style="edgeStyle=orthogonalEdgeStyle;rounded=0;orthogonalLoop=1;jettySize=auto;html=1;entryX=0;entryY=0.269;entryDx=0;entryDy=0;entryPerimeter=0;fontSize=13;fontColor=#006600;fontStyle=1" parent="1" source="HfodSYz1MGgp3rjWl605-11" target="HfodSYz1MGgp3rjWl605-29" edge="1">
          <mxGeometry relative="1" as="geometry" />
        </mxCell>
        <mxCell id="HfodSYz1MGgp3rjWl605-11" value="TenantManagerConstructor" style="rounded=0;whiteSpace=wrap;html=1;fontSize=13;fontStyle=1;fillColor=#dae8fc;strokeColor=#6c8ebf;" parent="1" vertex="1">
          <mxGeometry x="200" y="530" width="210" height="60" as="geometry" />
        </mxCell>
        <mxCell id="HfodSYz1MGgp3rjWl605-12" value="tenantManager&lt;br&gt;useTenantManager" style="rounded=0;whiteSpace=wrap;html=1;fontSize=13;fontStyle=1;fillColor=#fff2cc;strokeColor=#d6b656;" parent="1" vertex="1">
          <mxGeometry x="830" y="550" width="160" height="60" as="geometry" />
        </mxCell>
        <mxCell id="HfodSYz1MGgp3rjWl605-14" value="new&amp;nbsp;TenantManagerConstructor()" style="text;html=1;align=center;verticalAlign=middle;resizable=0;points=[];autosize=1;strokeColor=none;fillColor=none;fontSize=13;fontColor=#006600;fontStyle=1" parent="1" vertex="1">
          <mxGeometry x="420" y="530" width="230" height="30" as="geometry" />
        </mxCell>
        <mxCell id="HfodSYz1MGgp3rjWl605-39" style="edgeStyle=orthogonalEdgeStyle;rounded=0;orthogonalLoop=1;jettySize=auto;html=1;entryX=-0.005;entryY=0.442;entryDx=0;entryDy=0;entryPerimeter=0;fontSize=13;fontColor=#006600;fontStyle=1" parent="1" source="HfodSYz1MGgp3rjWl605-15" target="HfodSYz1MGgp3rjWl605-29" edge="1">
          <mxGeometry relative="1" as="geometry" />
        </mxCell>
        <mxCell id="HfodSYz1MGgp3rjWl605-15" value="PermissionManagerConstructor" style="rounded=0;whiteSpace=wrap;html=1;fontSize=13;fontStyle=1;fillColor=#dae8fc;strokeColor=#6c8ebf;" parent="1" vertex="1">
          <mxGeometry x="200" y="620" width="210" height="60" as="geometry" />
        </mxCell>
        <mxCell id="HfodSYz1MGgp3rjWl605-16" value="permissionManager&lt;br&gt;usePermissionManager" style="rounded=0;whiteSpace=wrap;html=1;fontSize=13;fontStyle=1;fillColor=#fff2cc;strokeColor=#d6b656;" parent="1" vertex="1">
          <mxGeometry x="830" y="650" width="160" height="60" as="geometry" />
        </mxCell>
        <mxCell id="HfodSYz1MGgp3rjWl605-18" value="new&amp;nbsp;PermissionManagerConstructor()" style="text;html=1;align=center;verticalAlign=middle;resizable=0;points=[];autosize=1;strokeColor=none;fillColor=none;fontSize=13;fontColor=#006600;fontStyle=1" parent="1" vertex="1">
          <mxGeometry x="400" y="620" width="260" height="30" as="geometry" />
        </mxCell>
        <mxCell id="HfodSYz1MGgp3rjWl605-34" style="edgeStyle=orthogonalEdgeStyle;rounded=0;orthogonalLoop=1;jettySize=auto;html=1;entryX=0.005;entryY=0.617;entryDx=0;entryDy=0;entryPerimeter=0;fontSize=13;fontColor=#006600;fontStyle=1" parent="1" source="HfodSYz1MGgp3rjWl605-20" target="HfodSYz1MGgp3rjWl605-29" edge="1">
          <mxGeometry relative="1" as="geometry" />
        </mxCell>
        <mxCell id="HfodSYz1MGgp3rjWl605-20" value="ProjectManagerConstructor" style="rounded=0;whiteSpace=wrap;html=1;fontSize=13;fontStyle=1;fillColor=#dae8fc;strokeColor=#6c8ebf;" parent="1" vertex="1">
          <mxGeometry x="200" y="710" width="210" height="60" as="geometry" />
        </mxCell>
        <mxCell id="HfodSYz1MGgp3rjWl605-21" value="projectManager&lt;br&gt;useProjectManager" style="rounded=0;whiteSpace=wrap;html=1;fontSize=13;fontStyle=1;fillColor=#fff2cc;strokeColor=#d6b656;" parent="1" vertex="1">
          <mxGeometry x="830" y="740" width="160" height="60" as="geometry" />
        </mxCell>
        <mxCell id="HfodSYz1MGgp3rjWl605-23" value="new&amp;nbsp;ProjectManagerConstructor()" style="text;html=1;align=center;verticalAlign=middle;resizable=0;points=[];autosize=1;strokeColor=none;fillColor=none;fontSize=13;fontColor=#006600;fontStyle=1" parent="1" vertex="1">
          <mxGeometry x="415" y="710" width="230" height="30" as="geometry" />
        </mxCell>
        <mxCell id="HfodSYz1MGgp3rjWl605-43" style="edgeStyle=orthogonalEdgeStyle;rounded=0;orthogonalLoop=1;jettySize=auto;html=1;entryX=0;entryY=0.769;entryDx=0;entryDy=0;entryPerimeter=0;fontSize=13;fontColor=#006600;fontStyle=1" parent="1" source="HfodSYz1MGgp3rjWl605-27" target="HfodSYz1MGgp3rjWl605-29" edge="1">
          <mxGeometry relative="1" as="geometry" />
        </mxCell>
        <mxCell id="HfodSYz1MGgp3rjWl605-27" value="cartContextUtil" style="rounded=0;whiteSpace=wrap;html=1;fontSize=13;fontStyle=1;fillColor=#dae8fc;strokeColor=#6c8ebf;" parent="1" vertex="1">
          <mxGeometry x="200" y="790" width="210" height="60" as="geometry" />
        </mxCell>
        <mxCell id="HfodSYz1MGgp3rjWl605-42" style="edgeStyle=orthogonalEdgeStyle;rounded=0;orthogonalLoop=1;jettySize=auto;html=1;entryX=0;entryY=0.923;entryDx=0;entryDy=0;entryPerimeter=0;fontSize=13;fontColor=#006600;fontStyle=1" parent="1" source="HfodSYz1MGgp3rjWl605-28" target="HfodSYz1MGgp3rjWl605-29" edge="1">
          <mxGeometry relative="1" as="geometry" />
        </mxCell>
        <mxCell id="HfodSYz1MGgp3rjWl605-28" value="..." style="rounded=0;whiteSpace=wrap;html=1;fontSize=13;fontStyle=1;fillColor=#dae8fc;strokeColor=#6c8ebf;" parent="1" vertex="1">
          <mxGeometry x="200" y="870" width="210" height="60" as="geometry" />
        </mxCell>
        <mxCell id="HfodSYz1MGgp3rjWl605-53" style="edgeStyle=orthogonalEdgeStyle;rounded=0;orthogonalLoop=1;jettySize=auto;html=1;entryX=0;entryY=0.5;entryDx=0;entryDy=0;fontSize=13;fontColor=#006600;" parent="1" source="HfodSYz1MGgp3rjWl605-29" target="HfodSYz1MGgp3rjWl605-46" edge="1">
          <mxGeometry relative="1" as="geometry" />
        </mxCell>
        <mxCell id="HfodSYz1MGgp3rjWl605-29" value="Valtio" style="rounded=0;whiteSpace=wrap;html=1;fontSize=13;fontStyle=1;fillColor=#e1d5e7;strokeColor=#9673a6;" parent="1" vertex="1">
          <mxGeometry x="650" y="420" width="100" height="520" as="geometry" />
        </mxCell>
        <mxCell id="HfodSYz1MGgp3rjWl605-41" value="new&amp;nbsp;UserContextConstructor()" style="text;html=1;align=center;verticalAlign=middle;resizable=0;points=[];autosize=1;strokeColor=none;fillColor=none;fontSize=13;fontColor=#006600;fontStyle=1" parent="1" vertex="1">
          <mxGeometry x="420" y="440" width="210" height="30" as="geometry" />
        </mxCell>
        <mxCell id="HfodSYz1MGgp3rjWl605-44" value="cartContext&lt;br&gt;useCartContext" style="rounded=0;whiteSpace=wrap;html=1;fontSize=13;fontStyle=1;fillColor=#fff2cc;strokeColor=#d6b656;" parent="1" vertex="1">
          <mxGeometry x="830" y="840" width="160" height="60" as="geometry" />
        </mxCell>
        <mxCell id="HfodSYz1MGgp3rjWl605-56" value="mroGlobalStore" style="text;html=1;align=center;verticalAlign=middle;resizable=0;points=[];autosize=1;strokeColor=none;fillColor=none;fontSize=13;fontColor=#330000;fontStyle=1" parent="1" vertex="1">
          <mxGeometry x="850" y="937.5" width="120" height="30" as="geometry" />
        </mxCell>
      </root>
    </mxGraphModel>
  </diagram>
  <diagram id="GsIj9Ki6hcz4fqUlxzuc" name="第 3 页">
    <mxGraphModel dx="1434" dy="796" grid="1" gridSize="10" guides="1" tooltips="1" connect="1" arrows="1" fold="1" page="1" pageScale="1" pageWidth="2339" pageHeight="3300" math="0" shadow="0">
      <root>
        <mxCell id="0" />
        <mxCell id="1" parent="0" />
      </root>
    </mxGraphModel>
  </diagram>
</mxfile>
